<?xml version="1.0" encoding="utf-8"?>
<!-- Generator: Adobe Illustrator 14.0.0, SVG Export Plug-In . SVG Version: 6.00 Build 43363)  -->
<!DOCTYPE svg PUBLIC "-//W3C//DTD SVG 1.1//EN" "http://www.w3.org/Graphics/SVG/1.1/DTD/svg11.dtd">
<svg version="1.1" id="Logotype" xmlns="http://www.w3.org/2000/svg" xmlns:xlink="http://www.w3.org/1999/xlink" x="0px" y="0px"
	 width="273.544px" height="346.489px" viewBox="1131.429 2066.937 273.544 346.489"
	 enable-background="new 1131.429 2066.937 273.544 346.489" xml:space="preserve">
<g transform="matrix(23.25581395348837, 0, 0, 23.25581395348837, 0, 0)">
	<g transform="matrix(1.471494403518133, 0, 0, 1.471494403518133, -38.017720703566944, -31.558732314540904)">
		<g transform="matrix(1.5052599999999998, 0, 0, 1.5052599999999998, 48.153710000000004, 25.363699999999998)">
			<g>
				<path id="rnd1" fill="#DD2C00" d="M12.449,41.595c0,1.486-1.169,2.655-2.655,2.655s-2.655-1.169-2.655-2.655
					c0-1.486,2.386-2.726,2.117-4.071C9.794,37.524,12.449,39.443,12.449,41.595z"/>
				<path id="rnd2" fill="#FF5722" d="M11.387,42.303c0-1.345-1.593-2.655-1.593-2.655c0,1.076-1.593,1.579-1.593,2.655
					c0,0.891,0.702,1.593,1.593,1.593C10.685,43.896,11.387,43.195,11.387,42.303z"/>
				<path id="rnd3" fill="#FFC107" d="M8.908,42.906c0-0.603,0.885-0.948,0.885-1.488c0,0,0.885,0.678,0.885,1.488
					c0,0.447-0.396,0.81-0.885,0.81C9.304,43.716,8.908,43.353,8.908,42.906z"/>
			</g>
		</g>
	</g>
</g>
</svg>
